<svg xmlns="http://www.w3.org/2000/svg" width="144.116" height="78.342" viewBox="0 0 144.116 78.342">
  <g id="no-results" transform="translate(0)">
    <g id="Group_9707" data-name="Group 9707">
      <path id="Path_5391" data-name="Path 5391" d="M364.114,392.424S381.82,374.455,367.108,355c-13.053-17.261-28.272-16.081-39.438-9.076-4.756,2.983-18.467.368-30.137-17.2-15.915-23.952-71.081-9.425-61.022,27.426,4.868,17.833-14.814,18.481-4.786,36.307Z" transform="translate(-228.835 -317)" fill="#e1e7ed"/>
      <path id="Path_5392" data-name="Path 5392" d="M10.5,0H142.482" transform="translate(-6.928 77.342)" fill="none" stroke="#b9c7d6" stroke-width="2"/>
      <g id="search_3_" data-name="search (3)" transform="translate(31.631 4.511)">
        <path id="Path_5393" data-name="Path 5393" d="M306.161,310.062l1.673,1.673,1.956,1.946.754.759,3.9-3.9-4.375-4.382Z" transform="translate(-265.456 -265.451)" fill="#b9c7d6"/>
        <path id="Path_5394" data-name="Path 5394" d="M346.829,338.918,360.3,352.383a5.593,5.593,0,1,1-7.909,7.911l-13.465-13.467Z" transform="translate(-293.86 -293.86)" fill="#b9c7d6"/>
        <g id="Group_8050" data-name="Group 8050">
          <path id="Path_5396" data-name="Path 5396" d="M331.3,339.221l7.909-7.911-.59-.591a1.959,1.959,0,0,0-2.769,0l-5.143,5.146a1.951,1.951,0,0,0,0,2.764Z" transform="translate(-286.245 -286.253)" fill="#98acc1"/>
          <path id="Path_5397" data-name="Path 5397" d="M0,25.285A25.284,25.284,0,1,1,25.285,50.573,25.283,25.283,0,0,1,0,25.285Z" transform="translate(0 -0.005)" fill="#98acc1"/>
        </g>
        <path id="Path_5398" data-name="Path 5398" d="M43.129,65.686A22.547,22.547,0,1,0,20.582,43.139,22.547,22.547,0,0,0,43.129,65.686Z" transform="translate(-17.845 -17.857)" fill="#d0dae4"/>
        <path id="Path_5399" data-name="Path 5399" d="M54.9,75.646A20.742,20.742,0,1,0,34.156,54.9,20.742,20.742,0,0,0,54.9,75.646Z" transform="translate(-29.615 -29.622)" fill="#edeff2"/>
        <path id="Path_6426" data-name="Path 6426" d="M41.484,20.742A20.742,20.742,0,0,0,0,20.742C0,32.2,9.446-4.182,41.484,20.742Z" transform="translate(0.157 40.297) rotate(-74.991)" fill="#fff" opacity="0.66"/>
      </g>
      <g id="Group_9706" data-name="Group 9706" transform="translate(45.97 22.422)" opacity="0.75">
        <g id="Group_9683" data-name="Group 9683">
          <g id="Group_9682" data-name="Group 9682">
            <g id="Group_9680" data-name="Group 9680" transform="translate(0 0.17)">
              <line id="Line_95" data-name="Line 95" x2="5.868" y2="5.732" transform="translate(0 0.068)" fill="none" stroke="#98acc1" stroke-linecap="round" stroke-width="2"/>
              <line id="Line_96" data-name="Line 96" y1="5.868" x2="5.732" transform="translate(0.068)" fill="none" stroke="#98acc1" stroke-linecap="round" stroke-width="2"/>
            </g>
            <g id="Group_9681" data-name="Group 9681" transform="translate(15.365)">
              <line id="Line_97" data-name="Line 97" x2="5.868" y2="5.732" transform="translate(0 0.068)" fill="none" stroke="#98acc1" stroke-linecap="round" stroke-width="2"/>
              <line id="Line_98" data-name="Line 98" y1="5.868" x2="5.732" transform="translate(0.068)" fill="none" stroke="#98acc1" stroke-linecap="round" stroke-width="2"/>
            </g>
            <path id="Path_6425" data-name="Path 6425" d="M114.225,224a13.374,13.374,0,0,0-9.962,4.43,1.022,1.022,0,1,0,1.523,1.364,11.373,11.373,0,0,1,16.878,0,1.022,1.022,0,1,0,1.523-1.364A13.376,13.376,0,0,0,114.225,224Z" transform="translate(-103.343 -211.296)" fill="#98acc1"/>
          </g>
        </g>
      </g>
    </g>
  </g>
</svg>
