<svg xmlns="http://www.w3.org/2000/svg" width="20" height="20" viewBox="0 0 20 20">
  <path id="notification" d="M5.333,14.35,4,12.95a10.7,10.7,0,0,0-4,7.8H1.9A8.362,8.362,0,0,1,5.333,14.35ZM18.1,20.75H20a10.606,10.606,0,0,0-3.9-7.8l-1.333,1.4A8.571,8.571,0,0,1,18.1,20.75Zm-1.9.5a6.377,6.377,0,0,0-4.762-6.3v-.7A1.5,1.5,0,0,0,10,12.75a1.5,1.5,0,0,0-1.429,1.5v.7a6.377,6.377,0,0,0-4.762,6.3v5.5l-1.9,2v1H18.1v-1l-1.9-2ZM10,32.75h.381a1.683,1.683,0,0,0,1.333-1.2,1.959,1.959,0,0,0,.19-.8H8.1A1.96,1.96,0,0,0,10,32.75Z" transform="translate(0 -12.75)" fill="#fff"/>
</svg>
