<svg xmlns="http://www.w3.org/2000/svg" width="14" height="12.65" viewBox="0 0 14 12.65">
  <path id="stadium" d="M30.968,27.978v0c0-1.118-1.306-2.055-3.335-2.565v-.541l1.578-.92a.381.381,0,0,0,0-.661l-1.767-1a.381.381,0,0,0-.569.332v2.626a16.151,16.151,0,0,0-2.9-.25,15.814,15.814,0,0,0-3.193.307v-.433l1.578-.92a.381.381,0,0,0,0-.661l-1.767-1a.381.381,0,0,0-.569.332v2.868c-1.862.524-3.043,1.424-3.044,2.488h0a1.467,1.467,0,0,0,.119.571l1.362,6.041a.381.381,0,0,0,.372.3H29.114a.382.382,0,0,0,.372-.3l1.363-6.042a1.468,1.468,0,0,0,.119-.571Zm-3.335-4.7.621.351-.621.362Zm-6.858,0,.621.351-.621.362Zm3.193,2.485c3.676,0,6.237,1.17,6.237,2.219a.877.877,0,0,1-.21.531c-1-.991-3.26-1.651-6.027-1.651s-5.03.66-6.027,1.651a.877.877,0,0,1-.21-.531C17.731,26.929,20.292,25.76,23.968,25.76Zm5.456,3.248A10.752,10.752,0,0,1,23.968,30.2a10.75,10.75,0,0,1-5.456-1.191c.787-.741,2.811-1.385,5.456-1.385S28.637,28.267,29.424,29.008Zm-4.418,5.119H22.93v-.866a1.038,1.038,0,0,1,2.076,0v.866Zm3.8,0H25.769v-.866a1.8,1.8,0,0,0-3.6,0v.866H19.127l-1-4.451h.017a11.427,11.427,0,0,0,5.828,1.286A11.428,11.428,0,0,0,29.8,29.675h.018Z" transform="translate(-16.968 -22.24)" fill="#6f8caa"/>
</svg>
